# xmcd CD database file
#
# Track frame offsets:
#	150
#	21229
#	40912
#	60690
#	91294
#	112344
#	131424
#	149930
#	178579
#	186652
#	209308
#	229685
#
# Disc length: 3422 seconds
#
# Revision: 0
# Processed by: cddbd v1.5.2PL0 Copyright (c) Steve Scherf et al.
# Submitted via: CDex 1.70beta2
#
DISCID=ba0d5c0c
DTITLE=Depart - Mountain Messenger
DYEAR=2008
DGENRE=Jazz
TTITLE0=Slam The Door Stewart
TTITLE1=I'm A Road Runner 
TTITLE2=Wenn Min Schatz Go Fuetere Goht
TTITLE3=Prospection
TTITLE4=Night Breeze
TTITLE5=Damenwahl
TTITLE6=Hip Pop Tamus
TTITLE7=Better Report
TTITLE8=Be My Love
TTITLE9=Slice Of Bread
TTITLE10=Mountain Messenger
TTITLE11=Und Wenn's E Mol Ober Isch
EXTD=YEAR: 2008
EXTT0=
EXTT1=
EXTT2=
EXTT3=
EXTT4=
EXTT5=
EXTT6=
EXTT7=
EXTT8=
EXTT9=
EXTT10=
EXTT11=
PLAYORDER=
